<?xml version="1.0" encoding="UTF-8" standalone="no"?><svg xmlns="http://www.w3.org/2000/svg" xmlns:xlink="http://www.w3.org/1999/xlink" contentScriptType="application/ecmascript" contentStyleType="text/css" height="491px" preserveAspectRatio="none" style="width:896px;height:491px;" version="1.1" viewBox="0 0 896 491" width="896px" zoomAndPan="magnify"><defs><filter height="300%" id="f30se7r" width="300%" x="-1" y="-1"><feGaussianBlur result="blurOut" stdDeviation="2.0"/><feColorMatrix in="blurOut" result="blurOut2" type="matrix" values="0 0 0 0 0 0 0 0 0 0 0 0 0 0 0 0 0 0 .4 0"/><feOffset dx="4.0" dy="4.0" in="blurOut2" result="blurOut3"/><feBlend in="SourceGraphic" in2="blurOut3" mode="normal"/></filter></defs><g><line style="stroke: #383838; stroke-width: 1.0; stroke-dasharray: 5.0,5.0;" x1="39" x2="39" y1="86.2969" y2="407.4922"/><line style="stroke: #383838; stroke-width: 1.0; stroke-dasharray: 5.0,5.0;" x1="293.5" x2="293.5" y1="86.2969" y2="407.4922"/><line style="stroke: #383838; stroke-width: 1.0; stroke-dasharray: 5.0,5.0;" x1="581" x2="581" y1="86.2969" y2="407.4922"/><text fill="#000000" font-family="sans-serif" font-size="14" lengthAdjust="spacingAndGlyphs" textLength="57" x="8" y="82.9951">Browser</text><ellipse cx="39.5" cy="13" fill="#F8F8F8" filter="url(#f30se7r)" rx="8" ry="8" style="stroke: #383838; stroke-width: 2.0;"/><path d="M39.5,21 L39.5,48 M26.5,29 L52.5,29 M39.5,48 L26.5,63 M39.5,48 L52.5,63 " fill="#F8F8F8" filter="url(#f30se7r)" style="stroke: #383838; stroke-width: 2.0;"/><text fill="#000000" font-family="sans-serif" font-size="14" lengthAdjust="spacingAndGlyphs" textLength="57" x="8" y="419.4873">Browser</text><ellipse cx="39.5" cy="432.7891" fill="#F8F8F8" filter="url(#f30se7r)" rx="8" ry="8" style="stroke: #383838; stroke-width: 2.0;"/><path d="M39.5,440.7891 L39.5,467.7891 M26.5,448.7891 L52.5,448.7891 M39.5,467.7891 L26.5,482.7891 M39.5,467.7891 L52.5,482.7891 " fill="#F8F8F8" filter="url(#f30se7r)" style="stroke: #383838; stroke-width: 2.0;"/><rect fill="#F8F8F8" filter="url(#f30se7r)" height="30.2969" style="stroke: #383838; stroke-width: 1.5;" width="72" x="255.5" y="51"/><text fill="#000000" font-family="sans-serif" font-size="14" lengthAdjust="spacingAndGlyphs" textLength="58" x="262.5" y="70.9951">WebApp</text><rect fill="#F8F8F8" filter="url(#f30se7r)" height="30.2969" style="stroke: #383838; stroke-width: 1.5;" width="72" x="255.5" y="406.4922"/><text fill="#000000" font-family="sans-serif" font-size="14" lengthAdjust="spacingAndGlyphs" textLength="58" x="262.5" y="426.4873">WebApp</text><rect fill="#F8F8F8" filter="url(#f30se7r)" height="30.2969" style="stroke: #383838; stroke-width: 1.5;" width="37" x="561" y="51"/><text fill="#000000" font-family="sans-serif" font-size="14" lengthAdjust="spacingAndGlyphs" textLength="23" x="568" y="70.9951">IDP</text><rect fill="#F8F8F8" filter="url(#f30se7r)" height="30.2969" style="stroke: #383838; stroke-width: 1.5;" width="37" x="561" y="406.4922"/><text fill="#000000" font-family="sans-serif" font-size="14" lengthAdjust="spacingAndGlyphs" textLength="23" x="568" y="426.4873">IDP</text><polygon fill="#383838" points="281.5,113.2969,291.5,117.2969,281.5,121.2969,285.5,117.2969" style="stroke: #383838; stroke-width: 1.0;"/><line style="stroke: #383838; stroke-width: 1.0;" x1="39.5" x2="287.5" y1="117.2969" y2="117.2969"/><text fill="#000000" font-family="sans-serif" font-size="13" lengthAdjust="spacingAndGlyphs" textLength="178" x="46.5" y="112.3638">Request protected resource</text><line style="stroke: #383838; stroke-width: 1.0;" x1="293.5" x2="335.5" y1="146.5625" y2="146.5625"/><line style="stroke: #383838; stroke-width: 1.0;" x1="335.5" x2="335.5" y1="146.5625" y2="159.5625"/><line style="stroke: #383838; stroke-width: 1.0;" x1="294.5" x2="335.5" y1="159.5625" y2="159.5625"/><polygon fill="#383838" points="304.5,155.5625,294.5,159.5625,304.5,163.5625,300.5,159.5625" style="stroke: #383838; stroke-width: 1.0;"/><text fill="#000000" font-family="sans-serif" font-size="13" lengthAdjust="spacingAndGlyphs" textLength="153" x="300.5" y="141.4966">Generate SAML request</text><polygon fill="#383838" points="50.5,184.5625,40.5,188.5625,50.5,192.5625,46.5,188.5625" style="stroke: #383838; stroke-width: 1.0;"/><line style="stroke: #383838; stroke-width: 1.0;" x1="44.5" x2="292.5" y1="188.5625" y2="188.5625"/><text fill="#000000" font-family="sans-serif" font-size="13" lengthAdjust="spacingAndGlyphs" textLength="192" x="56.5" y="183.6294">Redirect to IDP (HTTP/1.1 302)</text><polygon fill="#383838" points="569.5,213.6953,579.5,217.6953,569.5,221.6953,573.5,217.6953" style="stroke: #383838; stroke-width: 1.0;"/><line style="stroke: #383838; stroke-width: 1.0;" x1="39.5" x2="575.5" y1="217.6953" y2="217.6953"/><text fill="#000000" font-family="sans-serif" font-size="13" lengthAdjust="spacingAndGlyphs" textLength="185" x="46.5" y="212.7622">Browser redirects user to IDP</text><line style="stroke: #383838; stroke-width: 1.0;" x1="581.5" x2="623.5" y1="246.9609" y2="246.9609"/><line style="stroke: #383838; stroke-width: 1.0;" x1="623.5" x2="623.5" y1="246.9609" y2="259.9609"/><line style="stroke: #383838; stroke-width: 1.0;" x1="582.5" x2="623.5" y1="259.9609" y2="259.9609"/><polygon fill="#383838" points="592.5,255.9609,582.5,259.9609,592.5,263.9609,588.5,259.9609" style="stroke: #383838; stroke-width: 1.0;"/><text fill="#000000" font-family="sans-serif" font-size="13" lengthAdjust="spacingAndGlyphs" textLength="307" x="588.5" y="241.895">Authenticate user and generate SAML response</text><polygon fill="#383838" points="50.5,284.9609,40.5,288.9609,50.5,292.9609,46.5,288.9609" style="stroke: #383838; stroke-width: 1.0;"/><line style="stroke: #383838; stroke-width: 1.0;" x1="44.5" x2="580.5" y1="288.9609" y2="288.9609"/><text fill="#000000" font-family="sans-serif" font-size="13" lengthAdjust="spacingAndGlyphs" textLength="204" x="56.5" y="284.0278">Return encoded SAML response</text><polygon fill="#383838" points="281.5,314.0938,291.5,318.0938,281.5,322.0938,285.5,318.0938" style="stroke: #383838; stroke-width: 1.0;"/><line style="stroke: #383838; stroke-width: 1.0;" x1="39.5" x2="287.5" y1="318.0938" y2="318.0938"/><text fill="#000000" font-family="sans-serif" font-size="13" lengthAdjust="spacingAndGlyphs" textLength="209" x="46.5" y="313.1606">Send SAML response to WebApp</text><line style="stroke: #383838; stroke-width: 1.0;" x1="293.5" x2="335.5" y1="347.3594" y2="347.3594"/><line style="stroke: #383838; stroke-width: 1.0;" x1="335.5" x2="335.5" y1="347.3594" y2="360.3594"/><line style="stroke: #383838; stroke-width: 1.0;" x1="294.5" x2="335.5" y1="360.3594" y2="360.3594"/><polygon fill="#383838" points="304.5,356.3594,294.5,360.3594,304.5,364.3594,300.5,360.3594" style="stroke: #383838; stroke-width: 1.0;"/><text fill="#000000" font-family="sans-serif" font-size="13" lengthAdjust="spacingAndGlyphs" textLength="274" x="300.5" y="342.2935">if necessary register and authenticate user</text><polygon fill="#383838" points="50.5,385.3594,40.5,389.3594,50.5,393.3594,46.5,389.3594" style="stroke: #383838; stroke-width: 1.0;"/><line style="stroke: #383838; stroke-width: 1.0;" x1="44.5" x2="292.5" y1="389.3594" y2="389.3594"/><text fill="#000000" font-family="sans-serif" font-size="13" lengthAdjust="spacingAndGlyphs" textLength="230" x="56.5" y="384.4263">Redirect user to requested resource</text></g></svg>